#!OML:ASF H:\Terrain\Patient Classification 1\PLAYGROUND\JustinFriday\JustinFriday.ASF
:FULLY-SPECIFIED
:DEGREES
715
root -12.6595 17.1588 10.6308 155.91 -67.1102 -152.625
lowerback 12.6568 1.20189 7.50157
upperback 4.50773 2.24038 3.96582
thorax -2.19422 0.966477 -0.381625
lowerneck 7.87702 -15.7563 -14.7356
upperneck 9.0473 -23.5888 13.7166
head 4.83443 -12.0231 5.38759
rclavicle -4.57205e-014 4.31363e-014
rhumerus -8.47116 -36.6495 -27.8623
rradius 83.7593
rwrist 20.7858
rhand -21.6928 -27.7918
rfingers 7.12502
rthumb 4.70544 -57.7195
lclavicle -4.57205e-014 4.31363e-014
lhumerus -42.071 19.9212 62.991
lradius 68.0563
lwrist -6.79352
lhand -32.0049 -15.3769
lfingers 7.12502
lthumb -5.25342 14.5379
rfemur 8.40673 4.83702 34.355
rtibia 31.5382
rfoot -13.5015 -7.09902
rtoes -5.78778
lfemur -30.456 1.08269 -2.97757
ltibia 28.8713
lfoot -2.41927 -3.37814
ltoes 5.22425
716
root -12.857 17.187 10.5614 157.404 -67.2195 -154.991
lowerback 12.8226 1.27758 6.04157
upperback 4.72344 2.16568 3.92719
thorax -2.12786 0.927132 0.397138
lowerneck 7.89251 -15.6861 -15.2924
upperneck 9.34643 -23.6623 14.212
head 5.06038 -12.0698 5.57772
rclavicle -4.41302e-014 1.07344e-014
rhumerus -8.36028 -37.4616 -28.0745
rradius 84.4256
rwrist 20.265
rhand -22.1359 -27.6267
rfingers 7.12502
rthumb 4.27754 -57.5635
lclavicle -4.41302e-014 1.07344e-014
lhumerus -42.4119 20.3321 63.7009
lradius 65.364
lwrist -7.83281
lhand -31.2869 -15.4898
lfingers 7.12502
lthumb -4.56019 14.4411
rfemur 8.64022 4.61488 33.4951
rtibia 33.7576
rfoot -12.3345 -7.4434
rtoes -8.87871
lfemur -29.05 1.02767 -3.85255
ltibia 29.3386
lfoot -2.11478 -3.35037
ltoes 8.27075
717
root -13.0475 17.1906 10.4912 158.822 -67.3534 -157.312
lowerback 13.0282 1.39444 4.48099
upperback 4.98236 2.12615 3.98866
thorax -2.0397 0.897234 1.33614
lowerneck 6.91787 -15.864 -13.4534
upperneck 9.77734 -23.5642 12.8062
head 4.94696 -11.947 4.86814
rclavicle 6.4605e-015 1.8487e-014
rhumerus -9.20476 -38.1016 -27.8875
rradius 85.0369
rwrist 19.453
rhand -23.0907 -27.1966
rfingers 7.12502
rthumb 3.35555 -57.15
lclavicle 6.4605e-015 1.8487e-014
lhumerus -42.5804 20.7471 64.5142
lradius 62.5711
lwrist -8.60886
lhand -30.5437 -16.0047
lfingers 7.12502
lthumb -3.8425 13.9404
rfemur 8.8015 4.768 32.8014
rtibia 36.1088
rfoot -11.241 -7.58902
rtoes -8.55141
lfemur -27.6888 1.79488 -5.0206
ltibia 29.8243
lfoot -2.04556 -4.08856
ltoes 8.92681
718
root -13.2363 17.2304 10.5017 160.327 -66.8821 -159.173
lowerback 13.2443 1.39232 4.52497
upperback 4.96869 2.14221 3.68268
thorax -2.15733 0.908939 0.984628
lowerneck 7.56621 -15.6712 -15.6703
upperneck 9.92697 -23.7991 14.5716
head 5.40154 -12.1278 5.66004
rclavicle 1.08338e-014 7.95139e-016
rhumerus -9.41351 -38.5161 -28.0074
rradius 85.5036
rwrist 18.2096
rhand -23.3734 -27.4331
rfingers 7.12502
rthumb 3.08252 -57.3905
lclavicle 1.08338e-014 7.95139e-016
lhumerus -42.766 21.0881 64.8974
lradius 59.7159
lwrist -9.33239
lhand -29.958 -16.7949
lfingers 7.12502
lthumb -3.27693 13.1596
rfemur 8.04931 4.82796 31.7154
rtibia 38.373
rfoot -9.25992 -6.70261
rtoes -6.77066
lfemur -26.9276 2.10078 -5.78149
ltibia 30.3653
lfoot -2.37669 -4.03496
ltoes 10.2176
719
root -13.4239 17.246 10.4948 160.821 -66.4279 -160.037
lowerback 13.481 1.29097 4.78842
upperback 4.911 2.05857 3.42796
thorax -2.32647 0.86985 0.57787
lowerneck 7.60073 -15.6835 -14.9236
upperneck 9.88362 -23.6866 13.9423
head 5.19887 -12.0675 5.41002
rclavicle -4.29872e-014 -1.78906e-014
rhumerus -9.76386 -38.6582 -28.3913
rradius 85.9528
rwrist 17.2818
rhand -23.5921 -27.1262
rfingers 7.12502
rthumb 2.87128 -57.0866
lclavicle -4.29872e-014 -1.78906e-014
lhumerus -42.9168 21.1892 65.0907
lradius 56.739
lwrist -9.76356
lhand -29.679 -17.6282
lfingers 7.12502
lthumb -3.00748 12.3303
rfemur 7.23528 4.81667 31.1521
rtibia 40.9369
rfoot -7.27801 -6.18771
rtoes -4.6625
lfemur -26.1095 2.61098 -6.21245
ltibia 30.9459
lfoot -2.81458 -4.4322
ltoes 9.9121
720
root -13.6015 17.2511 10.4644 161.062 -65.8928 -160.546
lowerback 13.5687 1.27047 4.67621
upperback 4.89189 2.02308 3.51158
thorax -2.40233 0.847447 0.731502
lowerneck 7.4223 -15.597 -15.0026
upperneck 10.136 -23.5777 13.7744
head 5.27764 -12.0127 5.35917
rclavicle 1.14301e-015 2.00773e-014
rhumerus -9.73971 -38.6877 -28.6238
rradius 86.0944
rwrist 17.2546
rhand -22.8351 -26.5792
rfingers 7.12502
rthumb 3.60238 -56.5285
lclavicle 1.14301e-015 2.00773e-014
lhumerus -42.9899 21.4917 65.619
lradius 53.7926
lwrist -9.98425
lhand -29.0582 -18.1317
lfingers 7.12502
lthumb -2.40792 11.8344
rfemur 6.23993 4.85374 30.8869
rtibia 43.6236
rfoot -5.14676 -6.02063
rtoes -3.54587
lfemur -25.4143 3.30477 -6.35177
ltibia 31.5543
lfoot -3.1504 -4.92931
ltoes 10.4496
721
root -13.7734 17.2629 10.4339 162.293 -65.2972 -162.109
lowerback 13.615 1.35212 4.01812
upperback 4.93839 2.0464 3.53532
thorax -2.40634 0.854641 1.12076
lowerneck 7.18862 -15.5259 -15.1399
upperneck 10.3216 -23.4932 13.7472
head 5.37238 -11.9659 5.3498
rclavicle -2.24627e-014 -3.55825e-014
rhumerus -9.29906 -38.8651 -28.7143
rradius 85.5763
rwrist 17.9761
rhand -23.792 -25.6245
rfingers 7.12502
rthumb 2.67819 -55.5874
lclavicle -2.24627e-014 -3.55825e-014
lhumerus -43.0173 21.9197 66.166
lradius 51.0029
lwrist -10.1067
lhand -28.2596 -18.4243
lfingers 7.12502
lthumb -1.63664 11.5491
rfemur 5.14194 4.9897 30.1357
rtibia 46.2596
rfoot -2.66808 -5.95029
rtoes -1.1587
lfemur -24.5771 3.89363 -6.89267
ltibia 31.9708
lfoot -3.49744 -5.0639
ltoes 12.0526
722
root -13.9483 17.2908 10.438 164.364 -64.7555 -164.204
lowerback 13.4232 1.3944 3.65325
upperback 4.84609 2.05986 3.28632
thorax -2.40611 0.869011 1.06504
lowerneck 7.26971 -15.4941 -15.2389
upperneck 10.247 -23.4865 13.8934
head 5.36433 -11.9694 5.41503
rclavicle 2.27608e-014 -3.97569e-015
rhumerus -8.8869 -38.796 -28.9693
rradius 86.2259
rwrist 16.746
rhand -24.2314 -27.2069
rfingers 7.12502
rthumb 2.25384 -57.1747
lclavicle 2.27608e-014 -3.97569e-015
lhumerus -43.0554 22.2213 66.501
lradius 48.4248
lwrist -10.497
lhand -27.1718 -18.6916
lfingers 7.12502
lthumb -0.586048 11.2873
rfemur 3.50093 4.97885 28.8222
rtibia 48.8884
rfoot 0.054728 -5.82
rtoes 3.07685
lfemur -24.0548 4.00393 -7.83796
ltibia 32.2528
lfoot -4.10792 -4.64159
ltoes 12.3533
723
root -14.1207 17.3191 10.4008 165.615 -64.3016 -165.934
lowerback 13.5119 1.49327 2.89746
upperback 4.8816 2.09785 3.14994
thorax -2.44264 0.886434 1.33933
lowerneck 7.4643 -15.45 -15.3032
upperneck 10.1416 -23.4855 14.113
head 5.33414 -11.9804 5.50912
rclavicle 1.70955e-014 -3.65764e-014
rhumerus -9.90732 -38.1217 -28.6963
rradius 86.3292
rwrist 16.3535
rhand -26.3415 -27.0721
rfingers 7.12502
rthumb 0.215941 -57.0517
lclavicle 1.70955e-014 -3.65764e-014
lhumerus -43.0673 22.5033 66.674
lradius 46.0303
lwrist -11.3395
lhand -25.489 -18.5225
lfingers 7.12502
lthumb 1.03926 11.4547
rfemur 2.55603 4.80566 27.9627
rtibia 51.3746
rfoot 2.79557 -5.91921
rtoes 4.80321
lfemur -22.8528 4.48222 -8.55693
ltibia 32.3079
lfoot -4.73543 -4.86249
ltoes 11.7794
724
root -14.2914 17.3481 10.3851 166.459 -63.6806 -167.045
lowerback 13.5876 1.47938 2.69662
upperback 4.85194 2.05797 2.99618
thorax -2.51688 0.867763 1.29557
lowerneck 7.23113 -15.4178 -14.8556
upperneck 10.317 -23.3822 13.796
head 5.31876 -11.9142 5.35046
rclavicle 2.13694e-014 7.35503e-015
rhumerus -9.60147 -37.8475 -29.1142
rradius 86.4092
rwrist 15.1209
rhand -26.4567 -27.1723
rfingers 7.12502
rthumb 0.104674 -57.152
lclavicle 2.13694e-014 7.35503e-015
lhumerus -43.2156 23.4649 66.6136
lradius 43.849
lwrist -12.2293
lhand -23.503 -17.9335
lfingers 7.12502
lthumb 2.95736 12.0257
rfemur 1.23131 4.58049 27.1799
rtibia 53.834
rfoot 5.69597 -5.74849
rtoes 6.67316
lfemur -21.7572 4.81015 -9.03551
ltibia 32.0919
lfoot -5.20711 -4.57858
ltoes 12.2251
725
root -14.4575 17.381 10.3478 167.631 -63.1129 -168.721
lowerback 13.7089 1.50179 1.85875
upperback 4.96128 1.97281 2.93029
thorax -2.49649 0.819464 1.71019
lowerneck 6.82637 -15.4067 -14.73
upperneck 10.5584 -23.3192 13.55
head 5.4046 -11.8652 5.22606
rclavicle -6.98728e-014 9.14409e-015
rhumerus -9.56338 -37.377 -29.2506
rradius 86.1067
rwrist 16.6648
rhand -26.6593 -26.6142
rfingers 7.12502
rthumb -0.0910341 -56.5939
lclavicle -6.98728e-014 9.14409e-015
lhumerus -43.4606 24.8802 66.4278
lradius 41.862
lwrist -13.0198
lhand -21.1527 -17.4718
lfingers 7.12502
lthumb 5.22688 12.4437
rfemur 0.257159 4.53649 26.3364
rtibia 56.1676
rfoot 8.20648 -6.01938
rtoes 8.29692
lfemur -20.2619 5.26213 -9.75133
ltibia 31.6183
lfoot -5.56037 -4.4224
ltoes 12.5696
